<svg width="25" height="24" viewBox="0 0 25 24" fill="none" xmlns="http://www.w3.org/2000/svg">
<path d="M12.3447 14C13.4493 14 14.3447 13.1046 14.3447 12C14.3447 10.8954 13.4493 10 12.3447 10C11.2402 10 10.3447 10.8954 10.3447 12C10.3447 13.1046 11.2402 14 12.3447 14Z" stroke="#FF3939" stroke-width="1.7" stroke-linecap="round" stroke-linejoin="round"/>
<path d="M20.3447 18C21.6047 16.33 22.3447 14.25 22.3447 12C22.3447 9.75 21.6047 7.67 20.3447 6" stroke="#FF3939" stroke-width="1.7" stroke-linecap="round" stroke-linejoin="round"/>
<path d="M4.34473 6C3.08473 7.67 2.34473 9.75 2.34473 12C2.34473 14.25 3.08473 16.33 4.34473 18" stroke="#FF3939" stroke-width="1.7" stroke-linecap="round" stroke-linejoin="round"/>
<path d="M17.1445 15.6C17.8945 14.6 18.3445 13.35 18.3445 12C18.3445 10.65 17.8945 9.40002 17.1445 8.40002" stroke="#FF3939" stroke-width="1.7" stroke-linecap="round" stroke-linejoin="round"/>
<path d="M7.54474 8.40002C6.79474 9.40002 6.34473 10.65 6.34473 12C6.34473 13.35 6.79474 14.6 7.54474 15.6" stroke="#FF3939" stroke-width="1.7" stroke-linecap="round" stroke-linejoin="round"/>
</svg>
